<svg xmlns:inkscape="http://www.inkscape.org/namespaces/inkscape"
  xmlns:sodipodi="http://sodipodi.sourceforge.net/DTD/sodipodi-0.dtd"
  xmlns="http://www.w3.org/2000/svg" xmlns:svg="http://www.w3.org/2000/svg" version="1.1"
  id="svg514" sodipodi:docname="NSP.cdr.svg"
  inkscape:export-filename="..\OneDrive\Documentos\Inkscape\NORCAL SURPLUS\NSP.cdr.svg"
  inkscape:export-xdpi="96" inkscape:export-ydpi="96"
  inkscape:version="1.2.1 (9c6d41e410, 2022-07-14)" viewBox="290.47 202.69 202.17 192.2">
  <defs id="defs518" />
  <sodipodi:namedview id="namedview516" pagecolor="#505050" bordercolor="#ffffff" borderopacity="1"
    inkscape:showpageshadow="0" inkscape:pageopacity="0" inkscape:pagecheckerboard="1"
    inkscape:deskcolor="#505050" showgrid="false" inkscape:zoom="1.7067725" inkscape:cx="357.10675"
    inkscape:cy="282.69731" inkscape:window-width="1366" inkscape:window-height="697"
    inkscape:window-x="-8" inkscape:window-y="128" inkscape:window-maximized="1"
    inkscape:current-layer="svg514" />
  <g id="Layer1000">
    <path d="m 396.5981,225.5774 h -9.9853 v 136.6441 h 9.9853 V 238.9839 h 54.4606 v -13.4065 z"
      style="fill:#000000;fill-rule:evenodd;stroke:#000000;stroke-width:0.5669;stroke-linecap:butt;stroke-linejoin:miter;stroke-dasharray:none"
      id="path425" />
    <g id="Layer1001">
      <path d="m 345.9889,293.3807 1.3663,0.015 c 3.587,-4.0098 -4.8841,-3.9557 -1.3663,-0.015 z"
        style="fill:none;stroke:#000000;stroke-width:0.5669;stroke-linecap:butt;stroke-linejoin:miter;stroke-dasharray:none"
        id="path427" />
      <path
        d="m 360.826,291.5734 c 0.4595,-1.6614 -0.58,-2.3366 -1.4661,-1.4514 -0.9116,0.9108 0.0876,1.7439 1.4661,1.4514 z"
        style="fill:none;stroke:#000000;stroke-width:0.5669;stroke-linecap:butt;stroke-linejoin:miter;stroke-dasharray:none"
        id="path429" />
    </g>
    <path
      d="m 352.5695,282.782 c 2.0767,0.22 1.6923,-1.5117 0.8521,-1.7796 -1.3436,-0.4283 -1.4876,0.9119 -0.8521,1.7796 z"
      style="fill:none;stroke:#000000;stroke-width:0.5669;stroke-linecap:butt;stroke-linejoin:miter;stroke-dasharray:none"
      id="path432" />
    <path
      d="m 368.2837,306.7033 c -1.15,-0.7804 -2.1674,-0.1846 -1.5007,1.2934 0.9102,0.3779 0.9442,0.2398 1.6455,-0.1658 z"
      style="fill:none;stroke:#000000;stroke-width:0.5669;stroke-linecap:butt;stroke-linejoin:miter;stroke-dasharray:none"
      id="path434" />
    <g id="Layer1002">
      <path
        d="m 335.065,328.8492 c 1.6433,-0.483 34.3338,-0.1355 40.7739,-0.1355 7.1903,0 7.1631,-0.8776 7.1631,6.4437 l -3e-4,47.7599 c 0.002,2.2867 0.3753,4.4393 -1.6132,5.0621 -1.4726,0.4615 -34.5251,0.1462 -40.8296,0.1462 -7.0969,0 -7.2715,0.9482 -7.2712,-6.4082 v -47.7601 c -0.002,-2.3074 -0.4255,-4.4604 1.7773,-5.1081 z m -0.3271,-0.5292 c -2.1163,0.7818 -2.0239,2.3766 -2.0177,4.9167 l 9e-4,48.7207 c 0,7.0175 0.157,6.7513 7.1178,6.7513 4.767,0 40.1499,0.2642 41.6483,-0.1474 2.2575,-0.6202 2.1075,-2.5974 2.1007,-4.9238 l -8e-4,-48.7201 c 0,-7.0796 -0.339,-6.7839 -7.268,-6.7839 -6.149,0 -40.413,-0.2449 -41.5812,0.1865 z"
        style="fill:none;stroke:#000000;stroke-width:0.5669;stroke-linecap:butt;stroke-linejoin:miter;stroke-dasharray:none"
        id="path436" />
      <path
        d="m 348.9528,318.5175 c 0.4085,3.5371 -2.7839,3.1153 -3.3715,1.5299 -0.3648,-0.9839 0.199,-1.9792 0.8824,-2.2825 1.2422,-0.551 1.7686,0.1922 2.4891,0.7526 z m -4.4402,1.2799 c 0.3745,3.2859 5.8006,3.0027 5.4868,-0.7152 -0.3002,-3.5586 -5.9202,-3.0898 -5.4868,0.7152 z"
        style="fill:none;stroke:#000000;stroke-width:0.5669;stroke-linecap:butt;stroke-linejoin:miter;stroke-dasharray:none"
        id="path438" />
    </g>
    <path
      d="m 378.0468,228.1175 c -0.7019,-3.6921 4.6454,-4.3389 5.2398,-1.1613 0.6868,3.6714 -4.6477,4.278 -5.2398,1.1613 z m 1.7875,-4.0813 c -5.1216,1.5353 -2.6912,8.1338 1.8051,6.9956 4.6083,-1.1667 2.6906,-8.3429 -1.8051,-6.9956 z"
      style="fill:none;stroke:#000000;stroke-width:0.5669;stroke-linecap:butt;stroke-linejoin:miter;stroke-dasharray:none"
      id="path441" />
    <path
      d="m 367.5387,318.1382 c 2.1997,-1.3884 3.6599,2.0211 1.7309,3.0357 -0.9326,0.4906 -2.0242,0.0759 -2.4041,-0.5874 -0.8912,-1.5565 0.2594,-2.1872 0.6732,-2.4483 z m -1.7523,2.3792 c 1.025,3.0979 6.1613,1.9445 5.2682,-1.6373 -0.8229,-3.3004 -6.5359,-2.1946 -5.2682,1.6373 z"
      style="fill:none;stroke:#000000;stroke-width:0.5669;stroke-linecap:butt;stroke-linejoin:miter;stroke-dasharray:none"
      id="path443" />
    <path
      d="m 370.4168,240.2583 0.008,12.2137 11.2813,0.0671 c -0.2242,21.9059 -0.142,45.0185 0.002,67.0193 0.021,3.1793 -0.5091,3.9132 -3.708,3.8954 -4.9586,-0.0278 -9.9229,-0.004 -14.8821,-0.004 h -22.32 c -8.9751,0 -7.3146,1.5735 -7.3146,-15.4123 v -59.5199 c 0,-8.1961 -1.4113,-8.2593 6.8347,-8.2593 10.0323,0 20.065,0 30.0977,0 z m -35.1783,-0.5034 c -2.7615,0.5213 -2.3201,3.1482 -2.3196,5.8827 v 58.7999 c 0,5.3405 -0.2517,11.3029 0.002,16.5654 0.1446,3.0028 2.4129,3.0138 5.2379,3.0101 4.0413,-0.005 40.551,0.197 41.8422,-0.0739 2.5914,-0.5443 2.2731,-3.1731 2.2734,-5.8216 v -58.7999 c 0,-5.4343 0.2321,-11.1875 0.0439,-16.5753 -0.108,-3.09 -2.283,-3.0957 -5.2789,-3.0929 z"
      style="fill:none" id="path445" />
    <path
      d="m 368.2837,306.7033 0.1448,1.1276 c -0.7013,0.4056 -0.7353,0.5437 -1.6455,0.1658 -0.6667,-1.478 0.3507,-2.0738 1.5007,-1.2934 z m -7.4577,-15.1299 c -1.3785,0.2925 -2.3777,-0.5406 -1.4661,-1.4514 0.8861,-0.8852 1.9256,-0.21 1.4661,1.4514 z m -8.2565,-8.7914 c -0.6355,-0.8677 -0.4915,-2.2079 0.8521,-1.7796 0.8402,0.2679 1.2246,1.9996 -0.8521,1.7796 z m 5.8717,6.8734 c -0.72,1.3978 -0.1652,2.4509 1.141,2.922 l 0.009,6.4604 6.9219,0.0425 0.0173,5.8491 c -0.1734,1.4972 -0.2817,0.5006 -0.7381,1.5321 -0.7478,1.6897 0.5496,1.7991 0.6908,3.2451 0.1242,1.2742 -0.0992,2.6453 0.0884,3.998 l 4.6557,0.0382 0.0575,-1.9037 -2.8139,-0.036 c -0.5902,-5.3099 2.2648,-3.0711 0.3954,-5.9094 -0.6664,-1.0114 -0.4173,-1.8828 -0.419,-3.3761 -0.001,-1.277 0.0431,-2.5721 -0.0643,-3.8401 -2.5047,-1.1624 -3.7571,-0.3024 -7.7791,-0.6063 l -0.0658,-5.3784 c 0.9164,-0.4782 2.0092,-1.4585 1.1818,-2.9268 -0.7597,-1.3482 -1.9585,-0.4519 -3.2463,-1.3207 -1.3564,-0.9156 -4.3752,-3.094 -4.9362,-4.4079 0.4317,-0.5181 1.2237,-0.6445 1.415,-1.7322 0.1948,-1.1066 -0.3707,-1.8663 -1.1562,-2.1677 -2.1042,-0.8067 -3.3602,1.592 -2.0702,3.0399 0.3252,0.3648 0.4323,0.3376 0.7095,0.7447 0.2158,0.3172 0.3303,0.7245 0.5565,1.1242 0.7648,1.3513 3.8951,3.3333 5.449,4.6091 z"
      style="fill:none" id="path447" />
    <path
      d="m 345.8639,294.6419 c 0.7605,2.1288 -0.5462,15.0012 0.1137,18.5504 2.2683,0.0162 4.5544,0.0261 6.8224,0.006 2.967,-0.0264 1.961,0.057 2.9514,0.5508 2.3089,1.1508 2.9671,-2.8279 0.6594,-2.7414 -1.1781,0.0442 -0.5587,0.7265 -2.3956,0.7651 -2.0423,0.0428 -4.5621,0.0623 -6.6798,-0.0465 l 0.0561,-17.2823 c 0.9842,-0.7251 1.9806,-1.1713 1.7688,-2.9205 -0.3574,-2.9509 -4.82,-2.8571 -4.9952,0.216 -0.1122,1.9652 1.345,1.9119 1.6988,2.9024 z"
      style="fill:none" id="path449" />
    <path d="m 345.9889,293.3807 c -3.5178,-3.9407 4.9533,-3.9948 1.3663,0.015 z" style="fill:none"
      id="path451" />
    <path
      d="m 356.8473,312.571 c 0.0397,0.6208 0.0323,0.1148 -0.2304,0.4334 -1.272,-0.2188 -0.874,-1.1537 0.013,-0.955 0.1851,0.2857 0.1837,-10e-4 0.2174,0.5216 z"
      style="fill:none" id="path453" />
    <path
      d="m 334.0298,225.0099 33.588,0.0516 -0.0538,11.3783 -33.5495,0.01 z m -0.5918,12.0022 34.7584,0.002 -0.0111,-2.4169 0.003,-8.3999 -0.008,-1.7535 -2.4216,-0.006 -29.2799,-3e-4 -3.034,0.006 z"
      style="fill:none" id="path455" />
    <path
      d="m 330.1206,389.7096 c -0.5559,-6.3898 -0.2163,-28.4859 -0.2163,-36.4802 V 233.9498 c 0,-12.0985 -1.3638,-11.2433 7.0645,-11.2433 h 110.16 c 8.5286,0 6.6124,-1.645 6.6124,20.8431 v 137.52 c 0,12.2573 1.3331,11.3684 -6.8525,11.3684 h -110.16 c -4.4952,0 -6.3062,0.7435 -6.6081,-2.7284 z m -0.1959,-174.1033 c 0.5794,-2.2601 -0.3081,-6.7862 0.2548,-8.8674 0.6968,-2.5747 4.6588,-1.8431 7.2692,-1.8431 h 108.2401 c 2.7717,0 6.5676,-0.7012 7.2541,1.8596 0.3203,1.1936 0.1072,7.1396 0.1145,8.8242 5.9205,0.0924 11.9039,0.0119 17.8311,0.0119 20.6833,0 19.4477,-1.9221 19.4477,6.8383 0,2.8792 0.8246,15.4375 -0.9562,16.8132 -1.3844,1.0692 -6.0222,0.2809 -8.0416,0.6043 -0.3211,6.9472 -0.0187,14.6687 -0.0187,21.7023 v 119.0398 c 0,4.504 1.1282,7.1408 -3.9503,7.1079 -7.2278,-0.047 -14.4664,0.0542 -21.6927,-0.0124 -0.2705,-19.2515 -0.0117,-38.7018 -0.0117,-57.9754 V 228.6697 c 0,-6.0046 0.0366,-7.9004 -6.3762,-7.8874 l -115.4412,-0.002 c -6.2802,-0.0252 -5.8655,2.88 -5.8655,8.6094 v 100.8 c 0,4.2872 0.2461,54.6551 -0.0521,57.441 -2.704,0.3679 -7.9059,0.0629 -10.8811,0.0629 -16.797,0 -15.2484,1.1041 -15.2484,-6.3842 v -54.4799 c 0,-2.6985 0.2534,-84.1762 -0.0751,-87.0689 -10.7513,0.0258 -8.9442,2.4378 -8.9445,-17.5709 0,-2.8267 -0.7203,-6.1937 2.1731,-6.5627 z m -1.7802,-1.9562 c -6.2098,0.1355 -12.5515,0.0167 -18.7758,0.0167 -18.4524,0 -18.5094,-1.7246 -18.5094,9.2429 0,18.2957 -1.7529,18.8031 8.9436,18.7725 0.339,3.1053 0.0726,7.7207 0.0726,10.9876 v 121.1998 c 0,3.659 -0.0769,7.3987 -0.004,11.0472 0.0759,3.7948 2.3904,4.7123 6.1356,4.703 7.3187,-0.0182 14.6395,8e-4 21.9583,3e-4 0.1153,2.7119 1.3405,4.4634 3.7913,4.7899 2.209,0.2946 100.4434,0.059 112.0116,0.059 5.622,0 11.9339,1.4256 12.1028,-4.8549 7.3998,0.0578 14.8252,0.0111 22.2279,0.0102 4.0084,-3e-4 5.1633,-1.9355 5.1491,-5.9148 l -0.002,-120.2397 c 0,-7.0489 -0.2914,-14.7322 0.0173,-21.7009 3.1564,-0.1258 5.8411,0.6922 7.882,-1.4825 1.6246,-1.7308 1.1146,-5.504 1.1146,-8.2568 0,-18.3852 1.7062,-18.3628 -9.3713,-18.3628 l -27.9068,-0.013 c -0.0714,-9.0207 0.8518,-10.6815 -8.0932,-10.6813 h -110.88 c -8.712,-8e-4 -7.8185,1.7198 -7.8642,10.6776 z"
      style="fill:#000000;fill-rule:evenodd;stroke:#000000;stroke-width:0.5669;stroke-linecap:butt;stroke-linejoin:miter;stroke-dasharray:none"
      id="path457" />
    <path
      d="m 399.678,322.1263 39.8503,-0.0332 0.0215,15.622 -39.8407,0.1058 z m -0.5704,16.2629 41.0086,0.003 -0.006,-16.8145 -40.9927,-0.063 z"
      style="fill:none;stroke:#000000;stroke-width:0.5669;stroke-linecap:butt;stroke-linejoin:miter;stroke-dasharray:none"
      id="path459" />
    <path
      d="m 479.5464,382.2695 c 0.674,-2.1291 -0.8071,-3.8134 -2.2629,-4.2607 -2.1107,-0.6486 -3.8948,0.6707 -4.3433,2.2277 -1.3184,4.5797 5.2384,6.3525 6.6062,2.033 z"
      style="fill:none;stroke:#000000;stroke-width:0.5669;stroke-linecap:butt;stroke-linejoin:miter;stroke-dasharray:none"
      id="path461" />
    <path
      d="m 303.5035,382.0294 c 0.7421,4.3351 7.6516,3.288 6.768,-1.3736 -0.8189,-4.3197 -7.5586,-3.244 -6.768,1.3736 z"
      style="fill:none;stroke:#000000;stroke-width:0.5669;stroke-linecap:butt;stroke-linejoin:miter;stroke-dasharray:none"
      id="path463" />
    <path
      d="m 296.4172,218.7689 c -4.2219,1.7974 -1.5866,8.0013 2.6768,6.3402 4.0158,-1.5647 1.7024,-8.2048 -2.6768,-6.3402 z"
      style="fill:none;stroke:#000000;stroke-width:0.5669;stroke-linecap:butt;stroke-linejoin:miter;stroke-dasharray:none"
      id="path465" />
    <path
      d="m 483.5214,217.671 c -4.8359,1.1741 -2.8826,7.7465 1.4944,6.6969 1.5985,-0.3836 2.9758,-2.1033 2.4798,-4.2251 -0.3481,-1.4896 -2.0537,-2.9381 -3.9742,-2.4718 z"
      style="fill:none;stroke:#000000;stroke-width:0.5669;stroke-linecap:butt;stroke-linejoin:miter;stroke-dasharray:none"
      id="path467" />
    <path
      d="m 365.7864,320.5174 c -1.2677,-3.8319 4.4453,-4.9377 5.2682,-1.6373 0.8931,3.5818 -4.2432,4.7352 -5.2682,1.6373 z m -21.2738,-0.72 c -0.4334,-3.805 5.1866,-4.2738 5.4868,-0.7152 0.3138,3.7179 -5.1123,4.0011 -5.4868,0.7152 z m 2.8789,-25.3534 -0.0561,17.2823 c 2.1177,0.1088 4.6375,0.0893 6.6798,0.0465 1.8369,-0.0386 1.2175,-0.7209 2.3956,-0.7651 2.3077,-0.0865 1.6495,3.8922 -0.6594,2.7414 -0.9904,-0.4938 0.0156,-0.5772 -2.9514,-0.5508 -2.268,0.0201 -4.5541,0.0102 -6.8224,-0.006 -0.6599,-3.5492 0.6468,-16.4216 -0.1137,-18.5504 -0.3538,-0.9905 -1.811,-0.9372 -1.6988,-2.9024 0.1752,-3.0731 4.6378,-3.1669 4.9952,-0.216 0.2118,1.7492 -0.7846,2.1954 -1.7688,2.9205 z m 19.1803,19.2606 c -0.1876,-1.3527 0.0358,-2.7238 -0.0884,-3.998 -0.1412,-1.446 -1.4386,-1.5554 -0.6908,-3.2451 0.4564,-1.0315 0.5647,-0.0349 0.7381,-1.5321 l -0.0173,-5.8491 -6.9219,-0.0425 -0.009,-6.4604 c -1.3062,-0.4711 -1.861,-1.5242 -1.141,-2.922 -1.5539,-1.2758 -4.6842,-3.2578 -5.449,-4.6091 -0.2262,-0.3997 -0.3407,-0.807 -0.5565,-1.1242 -0.2772,-0.4071 -0.3843,-0.3799 -0.7095,-0.7447 -1.29,-1.4479 -0.034,-3.8466 2.0702,-3.0399 0.7855,0.3014 1.351,1.0611 1.1562,2.1677 -0.1913,1.0877 -0.9833,1.2141 -1.415,1.7322 0.561,1.3139 3.5798,3.4923 4.9362,4.4079 1.2878,0.8688 2.4866,-0.0275 3.2463,1.3207 0.8274,1.4683 -0.2654,2.4486 -1.1818,2.9268 l 0.0658,5.3784 c 4.022,0.3039 5.2744,-0.5561 7.7791,0.6063 0.1074,1.268 0.0629,2.5631 0.0643,3.8401 0.002,1.4933 -0.2474,2.3647 0.419,3.3761 1.8694,2.8383 -0.9856,0.5995 -0.3954,5.9094 l 2.8139,0.036 -0.0575,1.9037 z m 2.9914,-49.4425 c 1.2425,-0.4294 3.1839,-0.1927 4.6049,-0.1842 3.8021,0.0226 3.2284,1.7713 3.2222,6.0451 -0.005,3.9218 -1.8924,3.2854 -6.124,3.2766 -1.5097,-0.003 -2.5829,-0.1811 -3.0249,-1.4573 -0.2931,-0.845 -0.1785,-3.4333 -0.178,-4.4697 9e-4,-1.8354 0.0686,-2.7158 1.4998,-3.2105 z M 339.4763,264.09 c 1.0426,-0.3296 3.2179,-0.142 4.4558,-0.1374 3.7465,0.0139 3.1516,2.0987 3.1286,6.1764 -0.0207,3.708 -1.9485,3.2006 -6.2728,3.145 -3.6777,-0.0473 -3.0849,-2.0449 -3.0478,-6.2901 0.0167,-1.9224 0.2151,-2.4128 1.7362,-2.8939 z m 30.9405,-23.8317 c -10.0327,0 -20.0654,0 -30.0977,0 -8.246,0 -6.8347,0.0632 -6.8347,8.2593 v 59.5199 c 0,16.9858 -1.6605,15.4123 7.3146,15.4123 h 22.32 c 4.9592,-3e-4 9.9235,-0.0238 14.8821,0.004 3.1989,0.0178 3.729,-0.7161 3.708,-3.8954 -0.1445,-22.0008 -0.2267,-45.1134 -0.002,-67.0193 l -11.2813,-0.0671 z"
      style="fill:none;stroke:#000000;stroke-width:0.5669;stroke-linecap:butt;stroke-linejoin:miter;stroke-dasharray:none"
      id="path469" />
    <path
      d="m 335.065,328.8492 c -2.2028,0.6477 -1.779,2.8007 -1.7773,5.1081 v 47.7601 c -3e-4,7.3564 0.1743,6.4082 7.2712,6.4082 6.3045,0 39.357,0.3153 40.8296,-0.1462 1.9885,-0.6228 1.6149,-2.7754 1.6132,-5.0621 l 3e-4,-47.7599 c 0,-7.3213 0.0272,-6.4437 -7.1631,-6.4437 -6.4401,0 -39.1306,-0.3475 -40.7739,0.1355 z"
      style="fill:none;stroke:#000000;stroke-width:0.5669;stroke-linecap:butt;stroke-linejoin:miter;stroke-dasharray:none"
      id="path471" />
    <path
      d="m 403.95,319.0082 h 43.92 c 2.6337,0 3.0609,-0.9278 3.0518,-3.4376 -0.0371,-10.3085 0.2877,-70.3227 -0.2367,-71.458 -0.7803,-1.69 -3.3114,-1.2379 -5.2151,-1.2373 h -39.1201 c -1.9576,-3e-4 -4.608,-0.4944 -5.463,1.2163 -0.6086,1.2175 -0.2432,61.1328 -0.2763,71.4779 -0.009,2.7737 0.5204,3.4387 3.3394,3.4387 z"
      style="fill:none;stroke:#000000;stroke-width:0.5669;stroke-linecap:butt;stroke-linejoin:miter;stroke-dasharray:none"
      id="path473" />
    <path d="m 406.8621,266.4918 13.4271,-0.01 -0.0479,17.532 -13.3744,-0.0521 z"
      style="fill:none;stroke:#000000;stroke-width:0.5669;stroke-linecap:butt;stroke-linejoin:miter;stroke-dasharray:none"
      id="path475" />
    <path
      d="m 449.502,292.9175 c -0.6092,1.6407 -2.3942,1.4996 -4.3028,1.4933 -2.948,-0.01 -16.408,0.1766 -17.4035,-0.1717 -1.7383,-0.6084 -1.4242,-2.6856 -1.4213,-4.4417 0.005,-2.9894 -0.2047,-16.6042 0.2143,-17.6479 0.619,-1.5412 2.5809,-1.2895 4.4501,-1.2824 2.9783,0.0111 16.2547,-0.1959 17.2958,0.2016 1.5798,0.6026 1.3275,2.3553 1.323,4.3282 -0.007,2.8624 0.1712,16.6402 -0.1556,17.5206 z"
      style="fill:none;stroke:#000000;stroke-width:0.5669;stroke-linecap:butt;stroke-linejoin:miter;stroke-dasharray:none"
      id="path477" />
    <path
      d="m 452.5067,384.8374 c 10e-4,-16.9582 1.3294,-16.162 -5.6276,-16.1605 h -43.2 c -8.6267,0 -7.4764,-1.1189 -7.4764,9.9204 0,10.6562 -1.135,9.5901 7.7162,9.5901 h 43.2 c 3.6504,9e-4 5.3878,0.6662 5.3878,-3.35 z"
      style="fill:none;stroke:#000000;stroke-width:0.5669;stroke-linecap:butt;stroke-linejoin:miter;stroke-dasharray:none"
      id="path479" />
    <path d="m 440.9317,372.676 3.7239,0.0331 -0.0559,3.3923 -3.7463,0.008 z"
      style="fill:#000000;fill-rule:evenodd;stroke:#000000;stroke-width:0.5669;stroke-linecap:butt;stroke-linejoin:miter;stroke-dasharray:none"
      id="path481" />
    <path d="m 440.8311,376.8469 0.7679,-0.0108 3.06,0.0779 0.01,3.3509 -3.8313,0.0275 z"
      style="fill:#000000;fill-rule:evenodd;stroke:#000000;stroke-width:0.5669;stroke-linecap:butt;stroke-linejoin:miter;stroke-dasharray:none"
      id="path483" />
    <path d="m 440.8523,381.1467 3.8149,0.0777 0.006,3.3497 -3.8348,0.01 z"
      style="fill:#000000;fill-rule:evenodd;stroke:#000000;stroke-width:0.5669;stroke-linecap:butt;stroke-linejoin:miter;stroke-dasharray:none"
      id="path485" />
    <path d="m 399.0957,371.8565 28.2189,0.001 3e-4,13.0924 -28.2266,3e-4 z"
      style="fill:#000000;fill-rule:evenodd;stroke:#000000;stroke-width:0.5669;stroke-linecap:butt;stroke-linejoin:miter;stroke-dasharray:none"
      id="path487" />
    <path d="m 334.0145,236.4497 33.5495,-0.01 0.0538,-11.3783 -33.588,-0.0516 z"
      style="fill:none;stroke:#000000;stroke-width:0.5669;stroke-linecap:butt;stroke-linejoin:miter;stroke-dasharray:none"
      id="path489" />
    <path
      d="m 396.5981,225.5774 h 54.4606 v 13.4065 h -54.4606 z m 1.6313,7.9356 0.0165,-3.835 11.3612,-0.001 0.0171,5.2693 -11.3851,-0.002 z m 19.9004,-3.8667 11.397,-0.002 -0.0547,5.2625 -11.3344,0.0105 z m 18.9088,-0.002 11.3987,0.001 -0.008,5.2696 -11.3366,-0.008 z"
      style="display:none;fill:#ffffff;fill-rule:evenodd;stroke:#000000;stroke-width:0.5669;stroke-linecap:butt;stroke-linejoin:miter;stroke-dasharray:none"
      id="path491" />
    <path
      d="m 434.0064,259.7221 1.9533,0.002 8.625,0.002 1.9721,-0.006 -0.0477,-8.8526 -12.4965,-0.002 z"
      style="fill:none;stroke:#000000;stroke-width:0.5669;stroke-linecap:butt;stroke-linejoin:miter;stroke-dasharray:none"
      id="path493" />
    <path
      d="m 452.5067,384.8374 c 0,4.0162 -1.7374,3.3509 -5.3878,3.35 h -43.2 c -8.8512,0 -7.7162,1.0661 -7.7162,-9.5901 0,-11.0393 -1.1503,-9.9204 7.4764,-9.9204 h 43.2 c 6.957,-10e-4 5.6287,-0.7977 5.6276,16.1605 z m -54.5718,-16.6526 c -3.0186,0.7086 -2.3054,4.2341 -2.3054,7.2926 0,13.7132 -1.1698,13.3053 6.3695,13.3045 4.7196,-6e-4 47.3967,0.2386 48.941,-0.099 2.8329,-0.6196 2.1427,-4.64 2.1427,-7.4455 0,-13.4722 1.2211,-13.1295 -6.4437,-13.1297 -4.4187,-3e-4 -47.5277,-0.199 -48.7041,0.0771 z"
      style="fill:none" id="path495" />
    <path
      d="m 356.6169,313.0044 c 0.2627,-0.3186 0.2701,0.1874 0.2304,-0.4334 -0.0337,-0.523 -0.0323,-0.2359 -0.2174,-0.5216 -0.887,-0.1987 -1.285,0.7362 -0.013,0.955 z"
      style="fill:none;stroke:#000000;stroke-width:0.5669;stroke-linecap:butt;stroke-linejoin:miter;stroke-dasharray:none"
      id="path497" />
    <g id="Layer1003">
      <path
        d="m 413.5666,274.9861 a 3.8438,3.8438 0 0 1 3.8438,3.8438 3.8438,3.8438 0 1 1 -3.8438,-3.8438 z"
        style="fill:none;stroke:#000000;stroke-width:0.5669;stroke-linecap:butt;stroke-linejoin:miter;stroke-dasharray:none"
        id="path499" />
      <path
        d="m 413.5666,275.9703 a 2.8596,2.8596 0 0 1 2.8596,2.8596 2.8596,2.8596 0 1 1 -2.8596,-2.8596 z"
        style="fill:none;stroke:#000000;stroke-width:0.5669;stroke-linecap:butt;stroke-linejoin:miter;stroke-dasharray:none"
        id="path501" />
    </g>
    <path d="m 406.9553,273.6266 h 13.4056"
      style="fill:none;stroke:#000000;stroke-width:0.5669;stroke-linecap:butt;stroke-linejoin:miter;stroke-dasharray:none"
      id="path504" />
    <path d="m 404.3186,250.8493 v 9.5221 h 18.1156 v -9.5221 z"
      style="fill:none;stroke:#000000;stroke-width:0.5669;stroke-linecap:butt;stroke-linejoin:miter;stroke-dasharray:none"
      id="path506" />
    <g id="Layer1004">
      <path
        d="m 409.9076,252.5335 a 3.0937,3.0937 0 0 1 3.0938,3.0937 3.0937,3.0937 0 1 1 -3.0938,-3.0937 z"
        style="fill:none;stroke:#000000;stroke-width:0.5;stroke-linecap:butt;stroke-linejoin:miter;stroke-dasharray:none"
        id="path508" />
      <path
        d="m 409.9076,253.3256 a 2.3016,2.3016 0 0 1 2.3016,2.3016 2.3016,2.3016 0 1 1 -2.3016,-2.3016 z"
        style="fill:none;stroke:#000000;stroke-width:0.5;stroke-linecap:butt;stroke-linejoin:miter;stroke-dasharray:none"
        id="path510" />
    </g>
  </g>
</svg>